<svg width="20" height="20" viewBox="0 0 20 20" fill="none" xmlns="http://www.w3.org/2000/svg">
<rect width="20" height="20" rx="10" fill="#D9D9D9"/>
<path d="M13.9375 8.84375C14.1237 8.84375 14.2812 8.91536 14.4102 9.05859C14.5534 9.1875 14.625 9.34505 14.625 9.53125V10.2188C14.625 10.4049 14.5534 10.5697 14.4102 10.7129C14.2812 10.8418 14.1237 10.9062 13.9375 10.9062H10.8438V14C10.8438 14.1862 10.7721 14.3438 10.6289 14.4727C10.5 14.6159 10.3424 14.6875 10.1562 14.6875H9.46875C9.28255 14.6875 9.11784 14.6159 8.97461 14.4727C8.8457 14.3438 8.78125 14.1862 8.78125 14V10.9062H5.6875C5.5013 10.9062 5.33659 10.8418 5.19336 10.7129C5.06445 10.5697 5 10.4049 5 10.2188V9.53125C5 9.34505 5.06445 9.1875 5.19336 9.05859C5.33659 8.91536 5.5013 8.84375 5.6875 8.84375H8.78125V5.75C8.78125 5.5638 8.8457 5.40625 8.97461 5.27734C9.11784 5.13411 9.28255 5.0625 9.46875 5.0625H10.1562C10.3424 5.0625 10.5 5.13411 10.6289 5.27734C10.7721 5.40625 10.8438 5.5638 10.8438 5.75V8.84375H13.9375Z" fill="white"/>
</svg>
