<svg width="48" height="42" viewBox="0 0 48 42" fill="none" xmlns="http://www.w3.org/2000/svg">
<path d="M48 10.5V37.5C48 38.75 47.5625 39.8125 46.6875 40.6875C45.8125 41.5625 44.75 42 43.5 42H4.5C3.25 42 2.1875 41.5625 1.3125 40.6875C0.4375 39.8125 0 38.75 0 37.5V10.5C0 9.25 0.4375 8.1875 1.3125 7.3125C2.1875 6.4375 3.25 6 4.5 6H12.75L13.875 2.90625C14.125 2.34375 14.4375 1.84375 14.8125 1.40625C15.25 0.96875 15.75 0.625 16.3125 0.375C16.875 0.125 17.4688 0 18.0938 0H29.9062C30.8438 0 31.6875 0.28125 32.4375 0.84375C33.1875 1.34375 33.75 2.03125 34.125 2.90625L35.25 6H43.5C44.75 6 45.8125 6.4375 46.6875 7.3125C47.5625 8.1875 48 9.25 48 10.5ZM31.9688 31.9688C34.1562 29.7812 35.25 27.125 35.25 24C35.25 20.875 34.1562 18.2188 31.9688 16.0312C29.7812 13.8438 27.125 12.75 24 12.75C20.875 12.75 18.2188 13.8438 16.0312 16.0312C13.8438 18.2188 12.75 20.875 12.75 24C12.75 27.125 13.8438 29.7812 16.0312 31.9688C18.2188 34.1562 20.875 35.25 24 35.25C27.125 35.25 29.7812 34.1562 31.9688 31.9688ZM29.8125 18.1875C31.4375 19.8125 32.25 21.75 32.25 24C32.25 26.25 31.4375 28.1875 29.8125 29.8125C28.1875 31.4375 26.25 32.25 24 32.25C21.75 32.25 19.8125 31.4375 18.1875 29.8125C16.5625 28.1875 15.75 26.25 15.75 24C15.75 21.75 16.5625 19.8125 18.1875 18.1875C19.8125 16.5625 21.75 15.75 24 15.75C26.25 15.75 28.1875 16.5625 29.8125 18.1875Z" fill="#D9D9D9"/>
</svg>
